<mxfile>
    <diagram id="fiJ9CqWUIKI2wFCHqJbO" name="ページ1">
        <mxGraphModel dx="784" dy="753" grid="1" gridSize="10" guides="1" tooltips="1" connect="1" arrows="1" fold="1" page="1" pageScale="1" pageWidth="827" pageHeight="1169" math="0" shadow="0">
            <root>
                <mxCell id="0"/>
                <mxCell id="1" parent="0"/>
                <mxCell id="4" style="edgeStyle=orthogonalEdgeStyle;rounded=0;orthogonalLoop=1;jettySize=auto;html=1;entryX=0;entryY=0.5;entryDx=0;entryDy=0;" edge="1" parent="1" source="2" target="3">
                    <mxGeometry relative="1" as="geometry"/>
                </mxCell>
                <mxCell id="2" value="Class A" style="rounded=0;whiteSpace=wrap;html=1;" vertex="1" parent="1">
                    <mxGeometry x="70" y="70" width="120" height="60" as="geometry"/>
                </mxCell>
                <mxCell id="3" value="Class B" style="rounded=0;whiteSpace=wrap;html=1;" vertex="1" parent="1">
                    <mxGeometry x="260" y="70" width="120" height="60" as="geometry"/>
                </mxCell>
            </root>
        </mxGraphModel>
    </diagram>
    <diagram id="JSKDts4dOftg4U8PWKPT" name="ページ2">
        <mxGraphModel dx="941" dy="903" grid="1" gridSize="10" guides="1" tooltips="1" connect="1" arrows="1" fold="1" page="1" pageScale="1" pageWidth="827" pageHeight="1169" math="0" shadow="0">
            <root>
                <mxCell id="FUJ4JfGRm8PGYB_7hO_z-0"/>
                <mxCell id="FUJ4JfGRm8PGYB_7hO_z-1" parent="FUJ4JfGRm8PGYB_7hO_z-0"/>
                <mxCell id="i4kD2IEjtNCwe65r7rOJ-0" value="Class A" style="rounded=0;whiteSpace=wrap;html=1;" vertex="1" parent="FUJ4JfGRm8PGYB_7hO_z-1">
                    <mxGeometry x="90" y="375" width="120" height="60" as="geometry"/>
                </mxCell>
                <mxCell id="i4kD2IEjtNCwe65r7rOJ-1" value="Class B" style="rounded=0;whiteSpace=wrap;html=1;" vertex="1" parent="FUJ4JfGRm8PGYB_7hO_z-1">
                    <mxGeometry x="390" y="375" width="120" height="60" as="geometry"/>
                </mxCell>
                <mxCell id="i4kD2IEjtNCwe65r7rOJ-2" value="DIコンテナ" style="rounded=0;whiteSpace=wrap;html=1;" vertex="1" parent="FUJ4JfGRm8PGYB_7hO_z-1">
                    <mxGeometry x="260" y="240" width="120" height="60" as="geometry"/>
                </mxCell>
                <mxCell id="i4kD2IEjtNCwe65r7rOJ-3" value="" style="shape=flexArrow;endArrow=classic;html=1;" edge="1" parent="FUJ4JfGRm8PGYB_7hO_z-1">
                    <mxGeometry width="50" height="50" relative="1" as="geometry">
                        <mxPoint x="170" y="360" as="sourcePoint"/>
                        <mxPoint x="225" y="310" as="targetPoint"/>
                    </mxGeometry>
                </mxCell>
                <mxCell id="i4kD2IEjtNCwe65r7rOJ-4" value="1. クラスBのインスタンスを要求" style="text;html=1;align=center;verticalAlign=middle;resizable=0;points=[];autosize=1;" vertex="1" parent="FUJ4JfGRm8PGYB_7hO_z-1">
                    <mxGeometry x="40" y="290" width="190" height="20" as="geometry"/>
                </mxCell>
                <mxCell id="i4kD2IEjtNCwe65r7rOJ-5" value="2. クラスBのインスタンスを生成" style="text;html=1;align=center;verticalAlign=middle;resizable=0;points=[];autosize=1;" vertex="1" parent="FUJ4JfGRm8PGYB_7hO_z-1">
                    <mxGeometry x="425" y="310" width="190" height="20" as="geometry"/>
                </mxCell>
                <mxCell id="i4kD2IEjtNCwe65r7rOJ-6" value="" style="shape=flexArrow;endArrow=classic;html=1;" edge="1" parent="FUJ4JfGRm8PGYB_7hO_z-1">
                    <mxGeometry width="50" height="50" relative="1" as="geometry">
                        <mxPoint x="390" y="310" as="sourcePoint"/>
                        <mxPoint x="440" y="360" as="targetPoint"/>
                    </mxGeometry>
                </mxCell>
                <mxCell id="i4kD2IEjtNCwe65r7rOJ-7" value="" style="shape=flexArrow;endArrow=classic;html=1;" edge="1" parent="FUJ4JfGRm8PGYB_7hO_z-1">
                    <mxGeometry width="50" height="50" relative="1" as="geometry">
                        <mxPoint x="275" y="320" as="sourcePoint"/>
                        <mxPoint x="220" y="370" as="targetPoint"/>
                    </mxGeometry>
                </mxCell>
                <mxCell id="i4kD2IEjtNCwe65r7rOJ-8" value="3. 生成した&lt;br&gt;インスタンスを渡す" style="text;html=1;align=left;verticalAlign=middle;resizable=0;points=[];autosize=1;" vertex="1" parent="FUJ4JfGRm8PGYB_7hO_z-1">
                    <mxGeometry x="230" y="375" width="120" height="30" as="geometry"/>
                </mxCell>
            </root>
        </mxGraphModel>
    </diagram>
</mxfile>